<svg height="142" width="132" xmlns="http://www.w3.org/2000/svg"><style><![CDATA[.st0{fill:#EF3E42}.st1{fill:#FFFFFF}.st3{fill-rule:evenodd;clip-rule:evenodd;fill:#FFFFFF}]]></style><path d="M10.9 20.7c0-3 2.5-5.5 5.5-5.5h37.9c3 0 5.5 2.5 5.5 5.5v37.9c0 3-2.5 5.5-5.5 5.5H16.4c-3 0-5.5-2.5-5.5-5.5V20.7zm11.2 31.7H30l5.3-8.1 5.3 8.1h8l-9.4-13.6 8.4-11.9h-7.7l-4.4 6.6-4.5-6.6h-8l8.4 12-9.3 13.5zm47 26.5c0-3 2.5-5.5 5.5-5.5h37.9c3 0 5.5 2.5 5.5 5.5v37.9c0 3-2.5 5.5-5.5 5.5H74.6c-3 0-5.5-2.5-5.5-5.5V78.9zm20.8 5.5v9.8h-9.8v7.3h9.8v9.8h7.3v-9.8h9.8v-7.3h-9.8v-9.8h-7.3zM69.1 20.7c0-3 2.5-5.5 5.5-5.5h37.9c3 0 5.5 2.5 5.5 5.5v37.9c0 3-2.5 5.5-5.5 5.5H74.6c-3 0-5.5-2.5-5.5-5.5V20.7zm24.5 25.7c-2.4 0-4.4 2-4.4 4.4 0 2.4 2 4.4 4.4 4.4 2.4 0 4.4-2 4.4-4.4-.1-2.5-2-4.4-4.4-4.4zm0-22.2c-2.4 0-4.4 2-4.4 4.4s2 4.4 4.4 4.4c2.4 0 4.4-2 4.4-4.4s-2-4.4-4.4-4.4zm14.6 18.5v-6H79v6h29.2zm-59.7 59.2v-8.1H22.3v8.1h26.2zm-37.6-23c0-3 2.5-5.5 5.5-5.5h37.9c3 0 5.5 2.5 5.5 5.5v37.9c0 3-2.5 5.5-5.5 5.5H16.4c-3 0-5.5-2.5-5.5-5.5V78.9z"/><path id="_x3C_Slice_x3E__100_" fill="none" d="M0 0h132v142H0z"/></svg>