<svg xmlns="http://www.w3.org/2000/svg" viewBox="0 0 100 100"><path d="M42.7 5.4v8.4H5.2c-1.4 0-2.5 1.1-2.5 2.5v80.5c0 1.4 1.1 2.5 2.5 2.5h89.7c1.4 0 2.5-1.1 2.5-2.5V3.4C97.4 2 96.2.8 94.8.9l-49.7 2c-1.4 0-2.4 1.1-2.4 2.5zm-20 88.9h-15V18.8h34.7v14.6H25.2c-1.4 0-2.5 1.1-2.5 2.5v58.4zm25.4 0h-6.3v-6h6.3v6zm13.9 0h-8.9V86c0-1.4-1.1-2.5-2.5-2.5H39.3c-1.4 0-2.5 1.1-2.5 2.5v8.4h-9.1v-56H62v55.9zm30.3 0H67V35.9c0-1.4-1.1-2.5-2.5-2.5H47.7V7.8L92.3 6v88.3z"/><path d="M14.2 28.2h3c.6 0 1-.4 1-1v-3c0-.6-.4-1-1-1h-3c-.6 0-1 .4-1 1v3c0 .6.5 1 1 1zm17.5 0h3c.6 0 1-.4 1-1v-3c0-.6-.4-1-1-1h-3c-.6 0-1 .4-1 1v3c0 .6.5 1 1 1zm26.5-15.8h-3c-.6 0-1 .4-1 1v3c0 .6.4 1 1 1h3c.6 0 1-.4 1-1v-3c0-.5-.4-1-1-1zm15.3 0h-3c-.6 0-1 .4-1 1v3c0 .6.4 1 1 1h3c.6 0 1-.4 1-1v-3c0-.5-.4-1-1-1zm13.2 0h-3c-.6 0-1 .4-1 1v3c0 .6.4 1 1 1h3c.6 0 1-.4 1-1v-3c0-.5-.4-1-1-1zm-28.5 14h-3c-.6 0-1 .4-1 1v3c0 .6.4 1 1 1h3c.6 0 1-.4 1-1v-3c0-.5-.4-1-1-1zm15.3 0h-3c-.6 0-1 .4-1 1v3c0 .6.4 1 1 1h3c.6 0 1-.4 1-1v-3c0-.5-.4-1-1-1zm13.2 0h-3c-.6 0-1 .4-1 1v3c0 .6.4 1 1 1h3c.6 0 1-.4 1-1v-3c0-.5-.4-1-1-1zM73.5 38.7h-3c-.6 0-1 .4-1 1v3c0 .6.4 1 1 1h3c.6 0 1-.4 1-1v-3c0-.5-.4-1-1-1zm13.2 0h-3c-.6 0-1 .4-1 1v3c0 .6.4 1 1 1h3c.6 0 1-.4 1-1v-3c0-.5-.4-1-1-1zm-13.2 11h-3c-.6 0-1 .4-1 1v3c0 .6.4 1 1 1h3c.6 0 1-.4 1-1v-3c0-.5-.4-1-1-1zm13.2 0h-3c-.6 0-1 .4-1 1v3c0 .6.4 1 1 1h3c.6 0 1-.4 1-1v-3c0-.5-.4-1-1-1zm-13.2 12h-3c-.6 0-1 .4-1 1v3c0 .6.4 1 1 1h3c.6 0 1-.4 1-1v-3c0-.5-.4-1-1-1zm13.2 0h-3c-.6 0-1 .4-1 1v3c0 .6.4 1 1 1h3c.6 0 1-.4 1-1v-3c0-.5-.4-1-1-1zm-13.2 12h-3c-.6 0-1 .4-1 1v3c0 .6.4 1 1 1h3c.6 0 1-.4 1-1v-3c0-.5-.4-1-1-1zm13.2 0h-3c-.6 0-1 .4-1 1v3c0 .6.4 1 1 1h3c.6 0 1-.4 1-1v-3c0-.5-.4-1-1-1zm-13.2 12h-3c-.6 0-1 .4-1 1v3c0 .6.4 1 1 1h3c.6 0 1-.4 1-1v-3c0-.5-.4-1-1-1zm13.2 0h-3c-.6 0-1 .4-1 1v3c0 .6.4 1 1 1h3c.6 0 1-.4 1-1v-3c0-.5-.4-1-1-1zM14.2 40h3c.6 0 1-.4 1-1v-3c0-.6-.4-1-1-1h-3c-.6 0-1 .4-1 1v3c0 .6.5 1 1 1zm0 11.8h3c.6 0 1-.4 1-1v-3c0-.6-.4-1-1-1h-3c-.6 0-1 .4-1 1v3c0 .6.5 1 1 1zm0 11.8h3c.6 0 1-.4 1-1v-3c0-.6-.4-1-1-1h-3c-.6 0-1 .4-1 1v3c0 .6.5 1 1 1zm0 11.8h3c.6 0 1-.4 1-1v-3c0-.6-.4-1-1-1h-3c-.6 0-1 .4-1 1v3c0 .6.5 1 1 1zm0 11.8h3c.6 0 1-.4 1-1v-3c0-.6-.4-1-1-1h-3c-.6 0-1 .4-1 1v3c0 .6.5 1 1 1zm23.6-43.8h-3c-.6 0-1 .4-1 1v3c0 .6.4 1 1 1h3c.6 0 1-.4 1-1v-3c0-.5-.4-1-1-1zm17.3 0h-3c-.6 0-1 .4-1 1v3c0 .6.4 1 1 1h3c.6 0 1-.4 1-1v-3c0-.5-.5-1-1-1zm-17.3 14h-3c-.6 0-1 .4-1 1v3c0 .6.4 1 1 1h3c.6 0 1-.4 1-1v-3c0-.5-.4-1-1-1zm17.3 0h-3c-.6 0-1 .4-1 1v3c0 .6.4 1 1 1h3c.6 0 1-.4 1-1v-3c0-.5-.5-1-1-1zm-17.3 14h-3c-.6 0-1 .4-1 1v3c0 .6.4 1 1 1h3c.6 0 1-.4 1-1v-3c0-.5-.4-1-1-1zm17.3 0h-3c-.6 0-1 .4-1 1v3c0 .6.4 1 1 1h3c.6 0 1-.4 1-1v-3c0-.5-.5-1-1-1z"/></svg>