<?xml version="1.0" encoding="iso-8859-1"?>
<!-- Generator: Adobe Illustrator 19.0.0, SVG Export Plug-In . SVG Version: 6.00 Build 0)  -->
<svg version="1.1" id="Capa_1"
	xmlns="http://www.w3.org/2000/svg"
	xmlns:xlink="http://www.w3.org/1999/xlink" x="0px" y="0px" style="enable-background:new 0 0 460.8 460.8;" xml:space="preserve">
	<symbol id="user" viewBox="0 0 460.8 460.8">
		<g>
			<g>
				<path d="M230.432,0c-65.829,0-119.641,53.812-119.641,119.641s53.812,119.641,119.641,119.641s119.641-53.812,119.641-119.641
			S296.261,0,230.432,0z"/>
			</g>
		</g>
		<g>
			<g>
				<path d="M435.755,334.89c-3.135-7.837-7.314-15.151-12.016-21.943c-24.033-35.527-61.126-59.037-102.922-64.784
			c-5.224-0.522-10.971,0.522-15.151,3.657c-21.943,16.196-48.065,24.555-75.233,24.555s-53.29-8.359-75.233-24.555
			c-4.18-3.135-9.927-4.702-15.151-3.657c-41.796,5.747-79.412,29.257-102.922,64.784c-4.702,6.792-8.882,14.629-12.016,21.943
			c-1.567,3.135-1.045,6.792,0.522,9.927c4.18,7.314,9.404,14.629,14.106,20.898c7.314,9.927,15.151,18.808,24.033,27.167
			c7.314,7.314,15.673,14.106,24.033,20.898c41.273,30.825,90.906,47.02,142.106,47.02s100.833-16.196,142.106-47.02
			c8.359-6.269,16.718-13.584,24.033-20.898c8.359-8.359,16.718-17.241,24.033-27.167c5.224-6.792,9.927-13.584,14.106-20.898
			C436.8,341.682,437.322,338.024,435.755,334.89z"/>
			</g>
		</g>
	</symbol>
	<symbol id="settings" viewBox="0 0 512.001 512.001">
		<g>
			<g>
				<path d="M504.008,223.961c-4.121-2.587-36.412-21.931-49.246-27.802l-15.903-38.392c4.725-12.695,13.752-48.308,15.164-54.482
			c1.307-5.724-0.418-11.718-4.57-15.87l-24.868-24.867c-4.151-4.152-10.147-5.878-15.87-4.57
			c-4.682,1.071-41.226,10.23-54.482,15.164L315.84,57.239c-5.618-12.28-24.386-43.807-27.802-49.246
			c-3.121-4.973-8.581-7.992-14.453-7.992h-35.17c-5.872,0-11.332,3.019-14.454,7.992c-2.587,4.121-21.931,36.412-27.802,49.246
			l-38.392,15.903c-12.695-4.725-48.308-13.752-54.482-15.164c-5.724-1.307-11.718,0.419-15.87,4.57L62.547,87.416
			c-4.152,4.152-5.878,10.146-4.57,15.87c1.071,4.682,10.23,41.226,15.164,54.482L57.238,196.16
			c-12.28,5.618-43.807,24.386-49.246,27.802C3.019,227.083,0,232.543,0,238.415v35.17c0,5.872,3.019,11.332,7.992,14.454
			c4.121,2.587,36.412,21.931,49.246,27.802l15.903,38.392c-4.725,12.695-13.752,48.308-15.164,54.482
			c-1.307,5.724,0.418,11.718,4.57,15.87l24.868,24.868c4.152,4.152,10.148,5.879,15.87,4.57
			c4.682-1.071,41.226-10.23,54.482-15.164l38.392,15.903c5.618,12.28,24.386,43.807,27.802,49.246
			c3.122,4.973,8.582,7.992,14.454,7.992h35.17c5.872,0,11.332-3.019,14.454-7.992c2.587-4.121,21.931-36.412,27.802-49.246
			l38.392-15.903c12.695,4.725,48.308,13.752,54.482,15.164c5.726,1.31,11.719-0.418,15.87-4.57l24.868-24.868
			c4.152-4.152,5.878-10.146,4.57-15.87c-1.071-4.682-10.23-41.226-15.164-54.482l15.903-38.392
			c12.28-5.618,43.807-24.386,49.246-27.802c4.973-3.122,7.992-8.582,7.992-14.454v-35.17
			C512,232.543,508.981,227.083,504.008,223.961z M256,367.605c-61.539,0-111.605-50.066-111.605-111.605
			S194.461,144.396,256,144.396s111.605,50.066,111.605,111.605S317.539,367.605,256,367.605z"/>
			</g>
		</g>
	</symbol>
	<symbol id="company" viewBox="0 0 100 100">
		<g>
			<path d="M42.7,5.4v8.4H5.2c-1.4,0-2.5,1.1-2.5,2.5v80.5c0,1.4,1.1,2.5,2.5,2.5h89.7c1.4,0,2.5-1.1,2.5-2.5V3.4
		c0-1.4-1.2-2.6-2.6-2.5l-49.7,2C43.7,2.9,42.7,4,42.7,5.4z M22.7,94.3h-15V18.8h34.7v14.6H25.2c-1.4,0-2.5,1.1-2.5,2.5V94.3z
		 M48.1,94.3h-6.3v-6h6.3V94.3z M62,94.3h-8.9V86c0-1.4-1.1-2.5-2.5-2.5H39.3c-1.4,0-2.5,1.1-2.5,2.5v8.4h-9.1V38.4H62V94.3z
		 M92.3,94.3H67V35.9c0-1.4-1.1-2.5-2.5-2.5H47.7V7.8L92.3,6V94.3z"/>
			<path d="M14.2,28.2h3c0.6,0,1-0.4,1-1v-3c0-0.6-0.4-1-1-1h-3c-0.6,0-1,0.4-1,1v3C13.2,27.8,13.7,28.2,14.2,28.2z"/>
			<path d="M31.7,28.2h3c0.6,0,1-0.4,1-1v-3c0-0.6-0.4-1-1-1h-3c-0.6,0-1,0.4-1,1v3C30.7,27.8,31.2,28.2,31.7,28.2z"/>
			<path d="M58.2,12.4h-3c-0.6,0-1,0.4-1,1v3c0,0.6,0.4,1,1,1h3c0.6,0,1-0.4,1-1v-3C59.2,12.9,58.8,12.4,58.2,12.4z"/>
			<path d="M73.5,12.4h-3c-0.6,0-1,0.4-1,1v3c0,0.6,0.4,1,1,1h3c0.6,0,1-0.4,1-1v-3C74.5,12.9,74.1,12.4,73.5,12.4z"/>
			<path d="M86.7,12.4h-3c-0.6,0-1,0.4-1,1v3c0,0.6,0.4,1,1,1h3c0.6,0,1-0.4,1-1v-3C87.7,12.9,87.3,12.4,86.7,12.4z"/>
			<path d="M58.2,26.4h-3c-0.6,0-1,0.4-1,1v3c0,0.6,0.4,1,1,1h3c0.6,0,1-0.4,1-1v-3C59.2,26.9,58.8,26.4,58.2,26.4z"/>
			<path d="M73.5,26.4h-3c-0.6,0-1,0.4-1,1v3c0,0.6,0.4,1,1,1h3c0.6,0,1-0.4,1-1v-3C74.5,26.9,74.1,26.4,73.5,26.4z"/>
			<path d="M86.7,26.4h-3c-0.6,0-1,0.4-1,1v3c0,0.6,0.4,1,1,1h3c0.6,0,1-0.4,1-1v-3C87.7,26.9,87.3,26.4,86.7,26.4z"/>
			<path d="M73.5,38.7h-3c-0.6,0-1,0.4-1,1v3c0,0.6,0.4,1,1,1h3c0.6,0,1-0.4,1-1v-3C74.5,39.2,74.1,38.7,73.5,38.7z"/>
			<path d="M86.7,38.7h-3c-0.6,0-1,0.4-1,1v3c0,0.6,0.4,1,1,1h3c0.6,0,1-0.4,1-1v-3C87.7,39.2,87.3,38.7,86.7,38.7z"/>
			<path d="M73.5,49.7h-3c-0.6,0-1,0.4-1,1v3c0,0.6,0.4,1,1,1h3c0.6,0,1-0.4,1-1v-3C74.5,50.2,74.1,49.7,73.5,49.7z"/>
			<path d="M86.7,49.7h-3c-0.6,0-1,0.4-1,1v3c0,0.6,0.4,1,1,1h3c0.6,0,1-0.4,1-1v-3C87.7,50.2,87.3,49.7,86.7,49.7z"/>
			<path d="M73.5,61.7h-3c-0.6,0-1,0.4-1,1v3c0,0.6,0.4,1,1,1h3c0.6,0,1-0.4,1-1v-3C74.5,62.2,74.1,61.7,73.5,61.7z"/>
			<path d="M86.7,61.7h-3c-0.6,0-1,0.4-1,1v3c0,0.6,0.4,1,1,1h3c0.6,0,1-0.4,1-1v-3C87.7,62.2,87.3,61.7,86.7,61.7z"/>
			<path d="M73.5,73.7h-3c-0.6,0-1,0.4-1,1v3c0,0.6,0.4,1,1,1h3c0.6,0,1-0.4,1-1v-3C74.5,74.2,74.1,73.7,73.5,73.7z"/>
			<path d="M86.7,73.7h-3c-0.6,0-1,0.4-1,1v3c0,0.6,0.4,1,1,1h3c0.6,0,1-0.4,1-1v-3C87.7,74.2,87.3,73.7,86.7,73.7z"/>
			<path d="M73.5,85.7h-3c-0.6,0-1,0.4-1,1v3c0,0.6,0.4,1,1,1h3c0.6,0,1-0.4,1-1v-3C74.5,86.2,74.1,85.7,73.5,85.7z"/>
			<path d="M86.7,85.7h-3c-0.6,0-1,0.4-1,1v3c0,0.6,0.4,1,1,1h3c0.6,0,1-0.4,1-1v-3C87.7,86.2,87.3,85.7,86.7,85.7z"/>
			<path d="M14.2,40h3c0.6,0,1-0.4,1-1v-3c0-0.6-0.4-1-1-1h-3c-0.6,0-1,0.4-1,1v3C13.2,39.6,13.7,40,14.2,40z"/>
			<path d="M14.2,51.8h3c0.6,0,1-0.4,1-1v-3c0-0.6-0.4-1-1-1h-3c-0.6,0-1,0.4-1,1v3C13.2,51.4,13.7,51.8,14.2,51.8z"/>
			<path d="M14.2,63.6h3c0.6,0,1-0.4,1-1v-3c0-0.6-0.4-1-1-1h-3c-0.6,0-1,0.4-1,1v3C13.2,63.2,13.7,63.6,14.2,63.6z"/>
			<path d="M14.2,75.4h3c0.6,0,1-0.4,1-1v-3c0-0.6-0.4-1-1-1h-3c-0.6,0-1,0.4-1,1v3C13.2,75,13.7,75.4,14.2,75.4z"/>
			<path d="M14.2,87.2h3c0.6,0,1-0.4,1-1v-3c0-0.6-0.4-1-1-1h-3c-0.6,0-1,0.4-1,1v3C13.2,86.8,13.7,87.2,14.2,87.2z"/>
			<path d="M37.8,43.4h-3c-0.6,0-1,0.4-1,1v3c0,0.6,0.4,1,1,1h3c0.6,0,1-0.4,1-1v-3C38.8,43.9,38.4,43.4,37.8,43.4z"/>
			<path d="M55.1,43.4h-3c-0.6,0-1,0.4-1,1v3c0,0.6,0.4,1,1,1h3c0.6,0,1-0.4,1-1v-3C56.1,43.9,55.6,43.4,55.1,43.4z"/>
			<path d="M37.8,57.4h-3c-0.6,0-1,0.4-1,1v3c0,0.6,0.4,1,1,1h3c0.6,0,1-0.4,1-1v-3C38.8,57.9,38.4,57.4,37.8,57.4z"/>
			<path d="M55.1,57.4h-3c-0.6,0-1,0.4-1,1v3c0,0.6,0.4,1,1,1h3c0.6,0,1-0.4,1-1v-3C56.1,57.9,55.6,57.4,55.1,57.4z"/>
			<path d="M37.8,71.4h-3c-0.6,0-1,0.4-1,1v3c0,0.6,0.4,1,1,1h3c0.6,0,1-0.4,1-1v-3C38.8,71.9,38.4,71.4,37.8,71.4z"/>
			<path d="M55.1,71.4h-3c-0.6,0-1,0.4-1,1v3c0,0.6,0.4,1,1,1h3c0.6,0,1-0.4,1-1v-3C56.1,71.9,55.6,71.4,55.1,71.4z"/>
		</g>
	</symbol>
	<symbol id="calc" viewBox="0 0 132 142">
		<path d="M10.9,20.7c0-3,2.5-5.5,5.5-5.5h37.9c3,0,5.5,2.5,5.5,5.5v37.9c0,3-2.5,5.5-5.5,5.5H16.4c-3,0-5.5-2.5-5.5-5.5V20.7  L10.9,20.7z M22.1,52.4H30l5.3-8.1l5.3,8.1h8l-9.4-13.6l8.4-11.9h-7.7l-4.4,6.6l-4.5-6.6h-8l8.4,12L22.1,52.4L22.1,52.4z M69.1,78.9  c0-3,2.5-5.5,5.5-5.5h37.9c3,0,5.5,2.5,5.5,5.5v37.9c0,3-2.5,5.5-5.5,5.5H74.6c-3,0-5.5-2.5-5.5-5.5V78.9L69.1,78.9z M89.9,84.4v9.8  h-9.8v7.3h9.8v9.8h7.3v-9.8h9.8v-7.3h-9.8v-9.8H89.9L89.9,84.4z M69.1,20.7c0-3,2.5-5.5,5.5-5.5h37.9c3,0,5.5,2.5,5.5,5.5v37.9  c0,3-2.5,5.5-5.5,5.5H74.6c-3,0-5.5-2.5-5.5-5.5V20.7L69.1,20.7z M93.6,46.4c-2.4,0-4.4,2-4.4,4.4c0,2.4,2,4.4,4.4,4.4  c2.4,0,4.4-2,4.4-4.4C97.9,48.3,96,46.4,93.6,46.4L93.6,46.4z M93.6,24.2c-2.4,0-4.4,2-4.4,4.4s2,4.4,4.4,4.4c2.4,0,4.4-2,4.4-4.4  S96,24.2,93.6,24.2L93.6,24.2z M108.2,42.7v-6H79v6H108.2L108.2,42.7z M48.5,101.9v-8.1H22.3v8.1H48.5L48.5,101.9z M10.9,78.9  c0-3,2.5-5.5,5.5-5.5h37.9c3,0,5.5,2.5,5.5,5.5v37.9c0,3-2.5,5.5-5.5,5.5H16.4c-3,0-5.5-2.5-5.5-5.5V78.9L10.9,78.9z"/>
	</symbol>
	<symbol id="ticket" viewBox="0 0 497.25 497.25">
		<g>
			<g>
				<path d="M124.312,306h57.375v-57.375h-57.375V306z M143.438,267.75h19.125v19.125h-19.125V267.75z"/>
				<path d="M124.312,401.625h57.375V344.25h-57.375V401.625z M143.438,363.375h19.125V382.5h-19.125V363.375z"/>
				<path d="M124.312,210.375h57.375V153h-57.375V210.375z M143.438,172.125h19.125v19.125h-19.125V172.125z"/>
				<path d="M392.062,19.125h-19.125V0h-19.125v19.125h-57.375V0h-19.125v19.125h-57.375V0h-19.125v19.125h-57.375V0h-19.125v19.125
			h-19.125c-21.038,0-38.25,17.212-38.25,38.25V459c0,21.037,17.212,38.25,38.25,38.25h286.875c21.037,0,38.25-17.213,38.25-38.25
			V57.375C430.312,36.337,413.1,19.125,392.062,19.125z M411.188,459c0,11.475-7.65,19.125-19.125,19.125H105.188
			c-9.562,0-19.125-7.65-19.125-19.125V57.375c0-11.475,7.65-19.125,19.125-19.125h19.125v19.125h19.125V38.25h57.375v19.125h19.125
			V38.25h57.375v19.125h19.125V38.25h57.375v19.125h19.125V38.25h19.125c9.562,0,19.125,7.65,19.125,19.125V459z"/>
				<rect x="219.938" y="172.125" width="153" height="19.125"/>
				<rect x="219.938" y="267.75" width="153" height="19.125"/>
				<rect x="219.938" y="363.375" width="153" height="19.125"/>
			</g>
		</g>
	</symbol>
	<symbol id="analityc" viewBox="0 0 96 96">
		<path d="M11.961 12h-2.961v72h78v-2.889l-74.988-0.15-0.051-68.961zM33 15c0-1.659-1.344-3-3-3h-9c-1.659 0-3 1.341-3 3v60h15v-60zM51 33c0-1.659-1.344-3-3-3h-9c-1.659 0-3 1.341-3 3v42h15v-42zM69 51c0-1.659-1.344-3-3-3h-9c-1.659 0-3 1.341-3 3v24h15v-24zM84 66h-9c-1.659 0-3 1.341-3 3v6h15v-6c0-1.659-1.344-3-3-3z"/>
	</symbol>
</svg>
