<?xml version="1.0" encoding="iso-8859-1"?>
<!-- Generator: Adobe Illustrator 19.0.0, SVG Export Plug-In . SVG Version: 6.00 Build 0)  -->
<svg version="1.1" id="Capa_1"
    xmlns="http://www.w3.org/2000/svg"
    xmlns:xlink="http://www.w3.org/1999/xlink" x="0px" y="0px" style="enable-background:new 0 0 460.8 460.8;" xml:space="preserve">
    <defs>
        <linearGradient id="main-gradient" x2="0.35" y2="1">
            <stop offset="5%" stop-color="#ff8884" />
            <stop offset="95%" stop-color=" #ffa284" />
        </linearGradient>
    </defs>
    <symbol id="user" viewBox="0 0 460.8 460.8">
        <g>
            <g>
                <path d="M230.432,0c-65.829,0-119.641,53.812-119.641,119.641s53.812,119.641,119.641,119.641s119.641-53.812,119.641-119.641
			S296.261,0,230.432,0z"/>
            </g>
        </g>
        <g>
            <g>
                <path d="M435.755,334.89c-3.135-7.837-7.314-15.151-12.016-21.943c-24.033-35.527-61.126-59.037-102.922-64.784
			c-5.224-0.522-10.971,0.522-15.151,3.657c-21.943,16.196-48.065,24.555-75.233,24.555s-53.29-8.359-75.233-24.555
			c-4.18-3.135-9.927-4.702-15.151-3.657c-41.796,5.747-79.412,29.257-102.922,64.784c-4.702,6.792-8.882,14.629-12.016,21.943
			c-1.567,3.135-1.045,6.792,0.522,9.927c4.18,7.314,9.404,14.629,14.106,20.898c7.314,9.927,15.151,18.808,24.033,27.167
			c7.314,7.314,15.673,14.106,24.033,20.898c41.273,30.825,90.906,47.02,142.106,47.02s100.833-16.196,142.106-47.02
			c8.359-6.269,16.718-13.584,24.033-20.898c8.359-8.359,16.718-17.241,24.033-27.167c5.224-6.792,9.927-13.584,14.106-20.898
			C436.8,341.682,437.322,338.024,435.755,334.89z"/>
            </g>
        </g>
    </symbol>
    <symbol id="settings" viewBox="0 0 512.001 512.001">
        <g>
            <g>
                <path d="M504.008,223.961c-4.121-2.587-36.412-21.931-49.246-27.802l-15.903-38.392c4.725-12.695,13.752-48.308,15.164-54.482
			c1.307-5.724-0.418-11.718-4.57-15.87l-24.868-24.867c-4.151-4.152-10.147-5.878-15.87-4.57
			c-4.682,1.071-41.226,10.23-54.482,15.164L315.84,57.239c-5.618-12.28-24.386-43.807-27.802-49.246
			c-3.121-4.973-8.581-7.992-14.453-7.992h-35.17c-5.872,0-11.332,3.019-14.454,7.992c-2.587,4.121-21.931,36.412-27.802,49.246
			l-38.392,15.903c-12.695-4.725-48.308-13.752-54.482-15.164c-5.724-1.307-11.718,0.419-15.87,4.57L62.547,87.416
			c-4.152,4.152-5.878,10.146-4.57,15.87c1.071,4.682,10.23,41.226,15.164,54.482L57.238,196.16
			c-12.28,5.618-43.807,24.386-49.246,27.802C3.019,227.083,0,232.543,0,238.415v35.17c0,5.872,3.019,11.332,7.992,14.454
			c4.121,2.587,36.412,21.931,49.246,27.802l15.903,38.392c-4.725,12.695-13.752,48.308-15.164,54.482
			c-1.307,5.724,0.418,11.718,4.57,15.87l24.868,24.868c4.152,4.152,10.148,5.879,15.87,4.57
			c4.682-1.071,41.226-10.23,54.482-15.164l38.392,15.903c5.618,12.28,24.386,43.807,27.802,49.246
			c3.122,4.973,8.582,7.992,14.454,7.992h35.17c5.872,0,11.332-3.019,14.454-7.992c2.587-4.121,21.931-36.412,27.802-49.246
			l38.392-15.903c12.695,4.725,48.308,13.752,54.482,15.164c5.726,1.31,11.719-0.418,15.87-4.57l24.868-24.868
			c4.152-4.152,5.878-10.146,4.57-15.87c-1.071-4.682-10.23-41.226-15.164-54.482l15.903-38.392
			c12.28-5.618,43.807-24.386,49.246-27.802c4.973-3.122,7.992-8.582,7.992-14.454v-35.17
			C512,232.543,508.981,227.083,504.008,223.961z M256,367.605c-61.539,0-111.605-50.066-111.605-111.605
			S194.461,144.396,256,144.396s111.605,50.066,111.605,111.605S317.539,367.605,256,367.605z"/>
            </g>
        </g>
    </symbol>
    <symbol id="company" viewBox="0 0 100 100">
        <g>
            <path d="M42.7,5.4v8.4H5.2c-1.4,0-2.5,1.1-2.5,2.5v80.5c0,1.4,1.1,2.5,2.5,2.5h89.7c1.4,0,2.5-1.1,2.5-2.5V3.4
		c0-1.4-1.2-2.6-2.6-2.5l-49.7,2C43.7,2.9,42.7,4,42.7,5.4z M22.7,94.3h-15V18.8h34.7v14.6H25.2c-1.4,0-2.5,1.1-2.5,2.5V94.3z
		 M48.1,94.3h-6.3v-6h6.3V94.3z M62,94.3h-8.9V86c0-1.4-1.1-2.5-2.5-2.5H39.3c-1.4,0-2.5,1.1-2.5,2.5v8.4h-9.1V38.4H62V94.3z
		 M92.3,94.3H67V35.9c0-1.4-1.1-2.5-2.5-2.5H47.7V7.8L92.3,6V94.3z"/>
            <path d="M14.2,28.2h3c0.6,0,1-0.4,1-1v-3c0-0.6-0.4-1-1-1h-3c-0.6,0-1,0.4-1,1v3C13.2,27.8,13.7,28.2,14.2,28.2z"/>
            <path d="M31.7,28.2h3c0.6,0,1-0.4,1-1v-3c0-0.6-0.4-1-1-1h-3c-0.6,0-1,0.4-1,1v3C30.7,27.8,31.2,28.2,31.7,28.2z"/>
            <path d="M58.2,12.4h-3c-0.6,0-1,0.4-1,1v3c0,0.6,0.4,1,1,1h3c0.6,0,1-0.4,1-1v-3C59.2,12.9,58.8,12.4,58.2,12.4z"/>
            <path d="M73.5,12.4h-3c-0.6,0-1,0.4-1,1v3c0,0.6,0.4,1,1,1h3c0.6,0,1-0.4,1-1v-3C74.5,12.9,74.1,12.4,73.5,12.4z"/>
            <path d="M86.7,12.4h-3c-0.6,0-1,0.4-1,1v3c0,0.6,0.4,1,1,1h3c0.6,0,1-0.4,1-1v-3C87.7,12.9,87.3,12.4,86.7,12.4z"/>
            <path d="M58.2,26.4h-3c-0.6,0-1,0.4-1,1v3c0,0.6,0.4,1,1,1h3c0.6,0,1-0.4,1-1v-3C59.2,26.9,58.8,26.4,58.2,26.4z"/>
            <path d="M73.5,26.4h-3c-0.6,0-1,0.4-1,1v3c0,0.6,0.4,1,1,1h3c0.6,0,1-0.4,1-1v-3C74.5,26.9,74.1,26.4,73.5,26.4z"/>
            <path d="M86.7,26.4h-3c-0.6,0-1,0.4-1,1v3c0,0.6,0.4,1,1,1h3c0.6,0,1-0.4,1-1v-3C87.7,26.9,87.3,26.4,86.7,26.4z"/>
            <path d="M73.5,38.7h-3c-0.6,0-1,0.4-1,1v3c0,0.6,0.4,1,1,1h3c0.6,0,1-0.4,1-1v-3C74.5,39.2,74.1,38.7,73.5,38.7z"/>
            <path d="M86.7,38.7h-3c-0.6,0-1,0.4-1,1v3c0,0.6,0.4,1,1,1h3c0.6,0,1-0.4,1-1v-3C87.7,39.2,87.3,38.7,86.7,38.7z"/>
            <path d="M73.5,49.7h-3c-0.6,0-1,0.4-1,1v3c0,0.6,0.4,1,1,1h3c0.6,0,1-0.4,1-1v-3C74.5,50.2,74.1,49.7,73.5,49.7z"/>
            <path d="M86.7,49.7h-3c-0.6,0-1,0.4-1,1v3c0,0.6,0.4,1,1,1h3c0.6,0,1-0.4,1-1v-3C87.7,50.2,87.3,49.7,86.7,49.7z"/>
            <path d="M73.5,61.7h-3c-0.6,0-1,0.4-1,1v3c0,0.6,0.4,1,1,1h3c0.6,0,1-0.4,1-1v-3C74.5,62.2,74.1,61.7,73.5,61.7z"/>
            <path d="M86.7,61.7h-3c-0.6,0-1,0.4-1,1v3c0,0.6,0.4,1,1,1h3c0.6,0,1-0.4,1-1v-3C87.7,62.2,87.3,61.7,86.7,61.7z"/>
            <path d="M73.5,73.7h-3c-0.6,0-1,0.4-1,1v3c0,0.6,0.4,1,1,1h3c0.6,0,1-0.4,1-1v-3C74.5,74.2,74.1,73.7,73.5,73.7z"/>
            <path d="M86.7,73.7h-3c-0.6,0-1,0.4-1,1v3c0,0.6,0.4,1,1,1h3c0.6,0,1-0.4,1-1v-3C87.7,74.2,87.3,73.7,86.7,73.7z"/>
            <path d="M73.5,85.7h-3c-0.6,0-1,0.4-1,1v3c0,0.6,0.4,1,1,1h3c0.6,0,1-0.4,1-1v-3C74.5,86.2,74.1,85.7,73.5,85.7z"/>
            <path d="M86.7,85.7h-3c-0.6,0-1,0.4-1,1v3c0,0.6,0.4,1,1,1h3c0.6,0,1-0.4,1-1v-3C87.7,86.2,87.3,85.7,86.7,85.7z"/>
            <path d="M14.2,40h3c0.6,0,1-0.4,1-1v-3c0-0.6-0.4-1-1-1h-3c-0.6,0-1,0.4-1,1v3C13.2,39.6,13.7,40,14.2,40z"/>
            <path d="M14.2,51.8h3c0.6,0,1-0.4,1-1v-3c0-0.6-0.4-1-1-1h-3c-0.6,0-1,0.4-1,1v3C13.2,51.4,13.7,51.8,14.2,51.8z"/>
            <path d="M14.2,63.6h3c0.6,0,1-0.4,1-1v-3c0-0.6-0.4-1-1-1h-3c-0.6,0-1,0.4-1,1v3C13.2,63.2,13.7,63.6,14.2,63.6z"/>
            <path d="M14.2,75.4h3c0.6,0,1-0.4,1-1v-3c0-0.6-0.4-1-1-1h-3c-0.6,0-1,0.4-1,1v3C13.2,75,13.7,75.4,14.2,75.4z"/>
            <path d="M14.2,87.2h3c0.6,0,1-0.4,1-1v-3c0-0.6-0.4-1-1-1h-3c-0.6,0-1,0.4-1,1v3C13.2,86.8,13.7,87.2,14.2,87.2z"/>
            <path d="M37.8,43.4h-3c-0.6,0-1,0.4-1,1v3c0,0.6,0.4,1,1,1h3c0.6,0,1-0.4,1-1v-3C38.8,43.9,38.4,43.4,37.8,43.4z"/>
            <path d="M55.1,43.4h-3c-0.6,0-1,0.4-1,1v3c0,0.6,0.4,1,1,1h3c0.6,0,1-0.4,1-1v-3C56.1,43.9,55.6,43.4,55.1,43.4z"/>
            <path d="M37.8,57.4h-3c-0.6,0-1,0.4-1,1v3c0,0.6,0.4,1,1,1h3c0.6,0,1-0.4,1-1v-3C38.8,57.9,38.4,57.4,37.8,57.4z"/>
            <path d="M55.1,57.4h-3c-0.6,0-1,0.4-1,1v3c0,0.6,0.4,1,1,1h3c0.6,0,1-0.4,1-1v-3C56.1,57.9,55.6,57.4,55.1,57.4z"/>
            <path d="M37.8,71.4h-3c-0.6,0-1,0.4-1,1v3c0,0.6,0.4,1,1,1h3c0.6,0,1-0.4,1-1v-3C38.8,71.9,38.4,71.4,37.8,71.4z"/>
            <path d="M55.1,71.4h-3c-0.6,0-1,0.4-1,1v3c0,0.6,0.4,1,1,1h3c0.6,0,1-0.4,1-1v-3C56.1,71.9,55.6,71.4,55.1,71.4z"/>
        </g>
    </symbol>
    <symbol id="calc" viewBox="0 0 132 142">
        <path d="M10.9,20.7c0-3,2.5-5.5,5.5-5.5h37.9c3,0,5.5,2.5,5.5,5.5v37.9c0,3-2.5,5.5-5.5,5.5H16.4c-3,0-5.5-2.5-5.5-5.5V20.7  L10.9,20.7z M22.1,52.4H30l5.3-8.1l5.3,8.1h8l-9.4-13.6l8.4-11.9h-7.7l-4.4,6.6l-4.5-6.6h-8l8.4,12L22.1,52.4L22.1,52.4z M69.1,78.9  c0-3,2.5-5.5,5.5-5.5h37.9c3,0,5.5,2.5,5.5,5.5v37.9c0,3-2.5,5.5-5.5,5.5H74.6c-3,0-5.5-2.5-5.5-5.5V78.9L69.1,78.9z M89.9,84.4v9.8  h-9.8v7.3h9.8v9.8h7.3v-9.8h9.8v-7.3h-9.8v-9.8H89.9L89.9,84.4z M69.1,20.7c0-3,2.5-5.5,5.5-5.5h37.9c3,0,5.5,2.5,5.5,5.5v37.9  c0,3-2.5,5.5-5.5,5.5H74.6c-3,0-5.5-2.5-5.5-5.5V20.7L69.1,20.7z M93.6,46.4c-2.4,0-4.4,2-4.4,4.4c0,2.4,2,4.4,4.4,4.4  c2.4,0,4.4-2,4.4-4.4C97.9,48.3,96,46.4,93.6,46.4L93.6,46.4z M93.6,24.2c-2.4,0-4.4,2-4.4,4.4s2,4.4,4.4,4.4c2.4,0,4.4-2,4.4-4.4  S96,24.2,93.6,24.2L93.6,24.2z M108.2,42.7v-6H79v6H108.2L108.2,42.7z M48.5,101.9v-8.1H22.3v8.1H48.5L48.5,101.9z M10.9,78.9  c0-3,2.5-5.5,5.5-5.5h37.9c3,0,5.5,2.5,5.5,5.5v37.9c0,3-2.5,5.5-5.5,5.5H16.4c-3,0-5.5-2.5-5.5-5.5V78.9L10.9,78.9z"/>
    </symbol>
    <symbol id="ticket" viewBox="0 0 497.25 497.25">
        <g>
            <g>
                <path d="M124.312,306h57.375v-57.375h-57.375V306z M143.438,267.75h19.125v19.125h-19.125V267.75z"/>
                <path d="M124.312,401.625h57.375V344.25h-57.375V401.625z M143.438,363.375h19.125V382.5h-19.125V363.375z"/>
                <path d="M124.312,210.375h57.375V153h-57.375V210.375z M143.438,172.125h19.125v19.125h-19.125V172.125z"/>
                <path d="M392.062,19.125h-19.125V0h-19.125v19.125h-57.375V0h-19.125v19.125h-57.375V0h-19.125v19.125h-57.375V0h-19.125v19.125
			h-19.125c-21.038,0-38.25,17.212-38.25,38.25V459c0,21.037,17.212,38.25,38.25,38.25h286.875c21.037,0,38.25-17.213,38.25-38.25
			V57.375C430.312,36.337,413.1,19.125,392.062,19.125z M411.188,459c0,11.475-7.65,19.125-19.125,19.125H105.188
			c-9.562,0-19.125-7.65-19.125-19.125V57.375c0-11.475,7.65-19.125,19.125-19.125h19.125v19.125h19.125V38.25h57.375v19.125h19.125
			V38.25h57.375v19.125h19.125V38.25h57.375v19.125h19.125V38.25h19.125c9.562,0,19.125,7.65,19.125,19.125V459z"/>
                <rect x="219.938" y="172.125" width="153" height="19.125"/>
                <rect x="219.938" y="267.75" width="153" height="19.125"/>
                <rect x="219.938" y="363.375" width="153" height="19.125"/>
            </g>
        </g>
    </symbol>
    <symbol id="analityc" viewBox="0 0 96 96">
        <path d="M11.961 12h-2.961v72h78v-2.889l-74.988-0.15-0.051-68.961zM33 15c0-1.659-1.344-3-3-3h-9c-1.659 0-3 1.341-3 3v60h15v-60zM51 33c0-1.659-1.344-3-3-3h-9c-1.659 0-3 1.341-3 3v42h15v-42zM69 51c0-1.659-1.344-3-3-3h-9c-1.659 0-3 1.341-3 3v24h15v-24zM84 66h-9c-1.659 0-3 1.341-3 3v6h15v-6c0-1.659-1.344-3-3-3z"/>
    </symbol>
    <symbol id="download" viewBox="0 0 512 512">
        <g>
            <path d="M448.608,351.791c-18.444,0-33.4,14.952-33.4,33.396v52.055H96.788v-52.055c0-18.443-14.952-33.396-33.396-33.396
		s-33.396,14.952-33.396,33.396v85.451c0,18.443,14.952,33.4,33.396,33.4h385.217c18.443,0,33.396-14.957,33.396-33.4v-85.451
		C482.005,366.743,467.052,351.791,448.608,351.791z"/>
            <path d="M245.918,387.325c5.563,5.559,14.6,5.559,20.157,0l117.039-117.038c3.41-3.41,4.423-8.532,2.579-13
		c-1.844-4.45-6.18-7.351-11.012-7.351h-54.954V34.024c0-14.402-11.661-26.063-26.06-26.063h-75.323
		c-14.398,0-26.06,11.66-26.06,26.063v215.912h-54.973c-4.827,0-9.163,2.9-11.007,7.351c-1.844,4.468-0.83,9.59,2.575,13
		L245.918,387.325z"/>
        </g>
    </symbol>
    <symbol id="connected" viewBox="0 0 64 64">
        <path d="m34.293 6.293-4.293 4.293-1.293-1.293-1.414 1.414 2 2c.195.195.451.293.707.293s.512-.098.707-.293l5-5z"/>
        <path d="m52 24c.256 0 .512-.098.707-.293l5-5-1.414-1.414-4.293 4.293-1.293-1.293-1.414 1.414 2 2c.195.195.451.293.707.293z"/>
        <path d="m54 46c-2.282 0-4.339.966-5.798 2.504l-15.599-11.432c.882-1.489 1.397-3.22 1.397-5.072 0-.859-.12-1.688-.325-2.484l13.224-4.846c1.333 2.568 4.013 4.33 7.101 4.33 4.411 0 8-3.589 8-8s-3.589-8-8-8-8 3.589-8 8c0 .617.077 1.215.21 1.792l-13.225 4.847c-.985-2.022-2.628-3.659-4.653-4.638l1.899-5.205c.57.13 1.16.204 1.769.204 4.411 0 8-3.589 8-8s-3.589-8-8-8-8 3.589-8 8c0 3.097 1.772 5.782 4.352 7.111l-1.9 5.206c-.786-.2-1.605-.317-2.452-.317-1.616 0-3.139.394-4.492 1.078l-4.403-6.925c1.767-1.469 2.895-3.681 2.895-6.153 0-4.411-3.589-8-8-8s-8 3.589-8 8 3.589 8 8 8c1.223 0 2.378-.284 3.416-.777l4.405 6.93c-2.322 1.833-3.821 4.665-3.821 7.847 0 3.023 1.354 5.732 3.481 7.567l-3.753 5.361c-1.114-.59-2.382-.928-3.728-.928-4.411 0-8 3.589-8 8s3.589 8 8 8 8-3.589 8-8c0-2.347-1.022-4.454-2.637-5.919l3.754-5.363c1.446.813 3.11 1.282 4.883 1.282 2.944 0 5.586-1.286 7.418-3.318l15.596 11.43c-.644 1.153-1.014 2.477-1.014 3.888 0 4.411 3.589 8 8 8s8-3.589 8-8-3.589-8-8-8zm0-31c3.309 0 6 2.691 6 6s-2.691 6-6 6-6-2.691-6-6 2.691-6 6-6zm-28-5c0-3.309 2.691-6 6-6s6 2.691 6 6-2.691 6-6 6-6-2.691-6-6zm-22 0c0-3.309 2.691-6 6-6s6 2.691 6 6-2.691 6-6 6-6-2.691-6-6zm12 42c0 3.309-2.691 6-6 6s-6-2.691-6-6 2.691-6 6-6 6 2.691 6 6zm8-12c-4.411 0-8-3.589-8-8s3.589-8 8-8 8 3.589 8 8-3.589 8-8 8zm30 20c-3.309 0-6-2.691-6-6s2.691-6 6-6 6 2.691 6 6-2.691 6-6 6z"/>
        <path d="m8 52.586-1.293-1.293-1.414 1.414 2 2c.195.195.451.293.707.293s.512-.098.707-.293l5-5-1.414-1.414z"/>
    </symbol>
    <symbol id="star" viewBox="0 0 24 24">
        <path d="M12 0c-6.627 0-12 5.373-12 12s5.373 12 12 12 12-5.373 12-12-5.373-12-12-12zm4.326 18.266l-4.326-2.314-4.326 2.313.863-4.829-3.537-3.399 4.86-.671 2.14-4.415 2.14 4.415 4.86.671-3.537 3.4.863 4.829z"/>
    </symbol>
    <symbol id="pass-invisible" viewBox="0 0 223.471 223.471">
        <g>
            <path style="fill:#222220;" d="M222.462,101.816c-9.169-15.845-21.914-29.824-36.856-40.427c-3.378-2.396-8.06-1.602-10.457,1.776
		c-2.397,3.378-1.602,8.06,1.776,10.457c12.004,8.518,22.403,19.504,30.28,31.952c-20.612,32.608-56.794,52.688-95.47,52.688
		c-4.142,0-7.5,3.358-7.5,7.5s3.358,7.5,7.5,7.5c45.477,0,87.905-24.498,110.727-63.933
		C223.807,107.005,223.807,104.14,222.462,101.816z"/>
            <path style="fill:#222220;" d="M111.735,150.093c24.549,0,44.521-19.972,44.521-44.521c0-3.248-0.353-6.492-1.049-9.642
		c-0.893-4.045-4.895-6.602-8.941-5.706c-4.045,0.893-6.599,4.896-5.706,8.941c0.461,2.089,0.695,4.245,0.695,6.407
		c0,16.278-13.243,29.521-29.521,29.521c-5.423,0-10.504-1.476-14.876-4.038L205.372,22.542c2.929-2.929,2.929-7.678,0-10.606
		c-2.929-2.929-7.678-2.929-10.606,0L86.253,120.449c-2.562-4.372-4.038-9.453-4.038-14.876c0-16.278,13.243-29.521,29.521-29.521
		c2.331,0,4.648,0.271,6.888,0.806c4.026,0.958,8.075-1.524,9.037-5.553c0.962-4.029-1.524-8.075-5.553-9.037
		c-3.38-0.807-6.87-1.216-10.372-1.216c-24.549,0-44.521,19.972-44.521,44.521c0,9.572,3.046,18.44,8.207,25.708l-14.764,14.764
		c-18.229-9.275-33.489-23.186-44.394-40.47c20.612-32.612,56.793-52.692,95.472-52.692c8.014,0,16.013,0.844,23.776,2.509
		c4.051,0.87,8.038-1.71,8.906-5.76c0.869-4.05-1.71-8.038-5.76-8.906c-8.795-1.887-17.853-2.843-26.922-2.843
		c-45.477,0-87.905,24.498-110.727,63.934c-1.345,2.324-1.345,5.189,0,7.513c11.653,20.138,28.369,36.548,48.565,47.799
		l-43.801,43.8c-2.929,2.929-2.929,7.678,0,10.606c1.464,1.464,3.384,2.197,5.303,2.197s3.839-0.732,5.303-2.197l69.648-69.648
		C93.296,147.047,102.164,150.093,111.735,150.093z"/>
        </g>
    </symbol>
    <symbol id="pass-visible" viewBox="0 0 489.935 489.935">
        <g>
            <path d="M486.617,255.067c4.6-6.3,4.4-14.9-0.5-21c-74.1-91.1-154.1-137.3-237.9-137.3c-142.1,0-240.8,132.4-244.9,138
				c-4.6,6.3-4.4,14.9,0.5,21c74,91.2,154,137.4,237.8,137.4C383.717,393.167,482.417,260.767,486.617,255.067z M241.617,358.867
				c-69.8,0-137.8-38.4-202.4-114c25.3-29.9,105.7-113.8,209-113.8c69.8,0,137.8,38.4,202.4,114
				C425.317,274.967,344.917,358.867,241.617,358.867z"/>
            <path d="M244.917,157.867c-48,0-87.1,39.1-87.1,87.1s39.1,87.1,87.1,87.1s87.1-39.1,87.1-87.1S292.917,157.867,244.917,157.867z
				 M244.917,297.767c-29.1,0-52.8-23.7-52.8-52.8s23.7-52.8,52.8-52.8s52.8,23.7,52.8,52.8S274.017,297.767,244.917,297.767z"/>
        </g>
    </symbol>
    <symbol id="edit-button" viewBox="0 0 348.882 348.882">
        <g>
            <path d="M333.988,11.758l-0.42-0.383C325.538,4.04,315.129,0,304.258,0c-12.187,0-23.888,5.159-32.104,14.153L116.803,184.231
		c-1.416,1.55-2.49,3.379-3.154,5.37l-18.267,54.762c-2.112,6.331-1.052,13.333,2.835,18.729c3.918,5.438,10.23,8.685,16.886,8.685
		c0,0,0.001,0,0.001,0c2.879,0,5.693-0.592,8.362-1.76l52.89-23.138c1.923-0.841,3.648-2.076,5.063-3.626L336.771,73.176
		C352.937,55.479,351.69,27.929,333.988,11.758z M130.381,234.247l10.719-32.134l0.904-0.99l20.316,18.556l-0.904,0.99
		L130.381,234.247z M314.621,52.943L182.553,197.53l-20.316-18.556L294.305,34.386c2.583-2.828,6.118-4.386,9.954-4.386
		c3.365,0,6.588,1.252,9.082,3.53l0.419,0.383C319.244,38.922,319.63,47.459,314.621,52.943z"/>
            <path d="M303.85,138.388c-8.284,0-15,6.716-15,15v127.347c0,21.034-17.113,38.147-38.147,38.147H68.904
		c-21.035,0-38.147-17.113-38.147-38.147V100.413c0-21.034,17.113-38.147,38.147-38.147h131.587c8.284,0,15-6.716,15-15
		s-6.716-15-15-15H68.904c-37.577,0-68.147,30.571-68.147,68.147v180.321c0,37.576,30.571,68.147,68.147,68.147h181.798
		c37.576,0,68.147-30.571,68.147-68.147V153.388C318.85,145.104,312.134,138.388,303.85,138.388z"/>
        </g>
    </symbol>
    <symbol id="drop-arrow" viewBox="0 0 451.847 451.847">
        <g>
            <path d="M225.923,354.706c-8.098,0-16.195-3.092-22.369-9.263L9.27,151.157c-12.359-12.359-12.359-32.397,0-44.751
		c12.354-12.354,32.388-12.354,44.748,0l171.905,171.915l171.906-171.909c12.359-12.354,32.391-12.354,44.744,0
		c12.365,12.354,12.365,32.392,0,44.751L248.292,345.449C242.115,351.621,234.018,354.706,225.923,354.706z"/>
        </g>
    </symbol>
    <symbol id="calendar" viewBox="0 0 488.152 488.152">
        <g>
            <path d="M177.854,269.311c0-6.115-4.96-11.069-11.08-11.069h-38.665c-6.113,0-11.074,4.954-11.074,11.069v38.66
			c0,6.123,4.961,11.079,11.074,11.079h38.665c6.12,0,11.08-4.956,11.08-11.079V269.311L177.854,269.311z"/>
            <path d="M274.483,269.311c0-6.115-4.961-11.069-11.069-11.069h-38.67c-6.113,0-11.074,4.954-11.074,11.069v38.66
			c0,6.123,4.961,11.079,11.074,11.079h38.67c6.108,0,11.069-4.956,11.069-11.079V269.311z"/>
            <path d="M371.117,269.311c0-6.115-4.961-11.069-11.074-11.069h-38.665c-6.12,0-11.08,4.954-11.08,11.069v38.66
			c0,6.123,4.96,11.079,11.08,11.079h38.665c6.113,0,11.074-4.956,11.074-11.079V269.311z"/>
            <path d="M177.854,365.95c0-6.125-4.96-11.075-11.08-11.075h-38.665c-6.113,0-11.074,4.95-11.074,11.075v38.653
			c0,6.119,4.961,11.074,11.074,11.074h38.665c6.12,0,11.08-4.956,11.08-11.074V365.95L177.854,365.95z"/>
            <path d="M274.483,365.95c0-6.125-4.961-11.075-11.069-11.075h-38.67c-6.113,0-11.074,4.95-11.074,11.075v38.653
			c0,6.119,4.961,11.074,11.074,11.074h38.67c6.108,0,11.069-4.956,11.069-11.074V365.95z"/>
            <path d="M371.117,365.95c0-6.125-4.961-11.075-11.069-11.075h-38.67c-6.12,0-11.08,4.95-11.08,11.075v38.653
			c0,6.119,4.96,11.074,11.08,11.074h38.67c6.108,0,11.069-4.956,11.069-11.074V365.95L371.117,365.95z"/>
            <path d="M440.254,54.354v59.05c0,26.69-21.652,48.198-48.338,48.198h-30.493c-26.688,0-48.627-21.508-48.627-48.198V54.142
			h-137.44v59.262c0,26.69-21.938,48.198-48.622,48.198H96.235c-26.685,0-48.336-21.508-48.336-48.198v-59.05
			C24.576,55.057,5.411,74.356,5.411,98.077v346.061c0,24.167,19.588,44.015,43.755,44.015h389.82
			c24.131,0,43.755-19.889,43.755-44.015V98.077C482.741,74.356,463.577,55.057,440.254,54.354z M426.091,422.588
			c0,10.444-8.468,18.917-18.916,18.917H80.144c-10.448,0-18.916-8.473-18.916-18.917V243.835c0-10.448,8.467-18.921,18.916-18.921
			h327.03c10.448,0,18.916,8.473,18.916,18.921L426.091,422.588L426.091,422.588z"/>
            <path d="M96.128,129.945h30.162c9.155,0,16.578-7.412,16.578-16.567V16.573C142.868,7.417,135.445,0,126.29,0H96.128
			C86.972,0,79.55,7.417,79.55,16.573v96.805C79.55,122.533,86.972,129.945,96.128,129.945z"/>
            <path d="M361.035,129.945h30.162c9.149,0,16.572-7.412,16.572-16.567V16.573C407.77,7.417,400.347,0,391.197,0h-30.162
			c-9.154,0-16.577,7.417-16.577,16.573v96.805C344.458,122.533,351.881,129.945,361.035,129.945z"/>
        </g>
    </symbol>
</svg>
